<svg width="656" height="611" viewBox="0 0 656 611" fill="none" xmlns="http://www.w3.org/2000/svg">
<path d="M565.667 309.713C565.667 167.407 450.231 52.0463 307.834 52.0463C165.436 52.0463 50 167.407 50 309.713C50 452.018 165.436 567.379 307.834 567.379C450.231 567.379 565.667 452.018 565.667 309.713Z" fill="#7B4AE2" fill-opacity="0.2"/>
<g filter="url(#filter0_d_795_1355)">
<circle cx="570.144" cy="331.11" r="35.8102" fill="#090E16"/>
</g>
<g clip-path="url(#clip0_795_1355)">
<path fill-rule="evenodd" clip-rule="evenodd" d="M585.251 313.205H555.036C553.491 313.205 552.238 314.458 552.238 316.003V346.218C552.238 347.763 553.491 349.015 555.036 349.015H585.251C586.796 349.015 588.049 347.763 588.049 346.218V316.003C588.049 314.458 586.796 313.205 585.251 313.205ZM573.293 345.112V341.248C573.994 341.836 574.755 342.277 575.577 342.57C576.399 342.864 577.229 343.011 578.066 343.011C578.558 343.011 578.987 342.967 579.353 342.878C579.72 342.79 580.026 342.667 580.272 342.51C580.517 342.353 580.701 342.168 580.821 341.955C580.942 341.741 581.003 341.51 581.003 341.26C581.003 340.922 580.906 340.621 580.713 340.355C580.519 340.089 580.255 339.844 579.921 339.618C579.587 339.393 579.19 339.176 578.731 338.967C578.272 338.757 577.776 338.544 577.245 338.327C575.891 337.763 574.882 337.075 574.218 336.262C573.553 335.449 573.221 334.467 573.221 333.316C573.221 332.415 573.402 331.64 573.765 330.992C574.127 330.344 574.621 329.811 575.245 329.392C575.869 328.974 576.592 328.666 577.414 328.469C578.236 328.271 579.105 328.173 580.024 328.173C580.926 328.173 581.726 328.227 582.422 328.336C583.119 328.444 583.762 328.611 584.35 328.837V332.447C584.06 332.246 583.743 332.068 583.401 331.916C583.059 331.763 582.706 331.636 582.344 331.535C581.981 331.434 581.621 331.36 581.262 331.312C580.904 331.264 580.564 331.239 580.241 331.239C579.798 331.239 579.395 331.282 579.033 331.366C578.67 331.451 578.364 331.569 578.115 331.722C577.865 331.875 577.672 332.058 577.535 332.272C577.398 332.485 577.329 332.724 577.329 332.99C577.329 333.28 577.406 333.539 577.559 333.769C577.712 333.998 577.929 334.216 578.211 334.421C578.493 334.626 578.836 334.827 579.238 335.024C579.641 335.222 580.096 335.425 580.604 335.634C581.297 335.924 581.919 336.232 582.471 336.558C583.022 336.884 583.496 337.252 583.89 337.663C584.285 338.073 584.587 338.542 584.797 339.069C585.006 339.596 585.111 340.21 585.111 340.91C585.111 341.876 584.928 342.687 584.561 343.343C584.195 343.999 583.697 344.53 583.069 344.937C582.441 345.343 581.709 345.635 580.876 345.812C580.042 345.989 579.162 346.078 578.236 346.078C577.285 346.078 576.381 345.997 575.523 345.836C574.665 345.675 573.922 345.434 573.293 345.112ZM571.822 331.634H566.854V345.798H562.918V331.634H557.974V328.452H571.822V331.634Z" fill="#7B4AE2" fill-opacity="0.5"/>
</g>
<g filter="url(#filter1_d_795_1355)">
<circle cx="85.8102" cy="239.794" r="35.8102" fill="#090E16"/>
</g>
<path d="M99.208 233.496C98.7905 233.352 98.3578 233.216 97.9124 233.088C97.9856 232.789 98.0528 232.494 98.1125 232.204C99.0933 227.443 98.4521 223.608 96.2623 222.345C94.1626 221.134 90.7287 222.396 87.2606 225.415C86.9271 225.705 86.5927 226.012 86.2584 226.334C86.0356 226.121 85.8133 225.915 85.5915 225.718C81.9568 222.491 78.3136 221.131 76.126 222.397C74.0283 223.612 73.4071 227.217 74.29 231.729C74.3752 232.165 74.4749 232.61 74.5876 233.063C74.072 233.209 73.5742 233.365 73.0979 233.531C68.8367 235.017 66.1152 237.345 66.1152 239.76C66.1152 242.255 69.0367 244.757 73.4751 246.274C73.8254 246.393 74.1888 246.506 74.5633 246.614C74.4418 247.103 74.336 247.583 74.2473 248.051C73.4055 252.484 74.0629 256.005 76.155 257.211C78.3159 258.458 81.9426 257.177 85.4741 254.09C85.7532 253.846 86.0334 253.587 86.314 253.316C86.6777 253.666 87.0409 253.997 87.4021 254.308C90.8227 257.252 94.2012 258.441 96.2914 257.231C98.4502 255.981 99.1518 252.199 98.2409 247.598C98.1714 247.246 98.0904 246.887 97.9995 246.522C98.2542 246.447 98.5042 246.369 98.748 246.288C103.362 244.759 106.364 242.288 106.364 239.76C106.364 237.336 103.555 234.992 99.208 233.496ZM98.2073 244.656C97.9872 244.729 97.7613 244.799 97.5312 244.868C97.0218 243.255 96.3344 241.54 95.4931 239.769C96.2959 238.039 96.9568 236.346 97.4519 234.744C97.8637 234.863 98.2633 234.989 98.6484 235.122C102.373 236.404 104.645 238.3 104.645 239.76C104.645 241.316 102.191 243.336 98.2073 244.656ZM96.5542 247.932C96.9569 249.966 97.0145 251.806 96.7477 253.244C96.508 254.536 96.0259 255.397 95.4298 255.743C94.1614 256.477 91.4488 255.522 88.5234 253.005C88.1881 252.716 87.8503 252.408 87.5114 252.082C88.6455 250.842 89.779 249.4 90.8852 247.798C92.831 247.626 94.6692 247.343 96.3363 246.958C96.4184 247.289 96.4913 247.614 96.5542 247.932ZM79.837 255.616C78.5978 256.053 77.6107 256.066 77.0141 255.722C75.7445 254.99 75.2167 252.163 75.9367 248.371C76.0191 247.937 76.1173 247.491 76.2304 247.035C77.8792 247.4 79.704 247.662 81.6544 247.82C82.7681 249.387 83.9343 250.828 85.1095 252.089C84.8528 252.337 84.597 252.573 84.3427 252.795C82.7811 254.16 81.2162 255.129 79.837 255.616ZM74.0312 244.647C72.0686 243.976 70.4478 243.104 69.3369 242.153C68.3386 241.298 67.8346 240.449 67.8346 239.76C67.8346 238.295 70.0196 236.425 73.6639 235.155C74.1061 235.001 74.5689 234.855 75.0493 234.719C75.5529 236.357 76.2136 238.07 77.011 239.802C76.2033 241.56 75.5332 243.3 75.0247 244.958C74.6822 244.859 74.3504 244.756 74.0312 244.647ZM75.9774 231.399C75.221 227.533 75.7233 224.617 76.9875 223.885C78.334 223.106 81.3115 224.217 84.4498 227.004C84.6504 227.182 84.8518 227.368 85.0537 227.561C83.8843 228.817 82.7288 230.247 81.625 231.804C79.732 231.98 77.92 232.262 76.254 232.639C76.1493 232.218 76.0565 231.804 75.9774 231.399ZM93.339 235.686C92.9407 234.998 92.5319 234.327 92.115 233.673C93.3992 233.836 94.6296 234.051 95.7851 234.315C95.4382 235.427 95.0058 236.589 94.4969 237.781C94.1318 237.087 93.7456 236.389 93.339 235.686ZM86.259 228.79C87.052 229.649 87.8463 230.609 88.6275 231.649C87.8403 231.612 87.0433 231.593 86.2398 231.593C85.4438 231.593 84.6527 231.612 83.8704 231.648C84.6524 230.617 85.4535 229.659 86.259 228.79ZM79.1336 235.698C78.7358 236.388 78.3568 237.083 77.9974 237.779C77.4967 236.592 77.0683 235.424 76.7184 234.297C77.8668 234.04 79.0914 233.83 80.3674 233.67C79.9447 234.33 79.5325 235.006 79.1336 235.698V235.698ZM80.4042 245.973C79.0858 245.826 77.8428 245.626 76.6947 245.377C77.0502 244.229 77.488 243.036 77.9993 241.823C78.3596 242.519 78.7401 243.215 79.1404 243.906H79.1405C79.5482 244.61 79.9706 245.3 80.4042 245.973ZM86.3065 250.852C85.4916 249.972 84.6787 249 83.8849 247.953C84.6555 247.984 85.4412 247.999 86.2398 247.999C87.0601 247.999 87.8711 247.981 88.6694 247.945C87.8856 249.01 87.0942 249.984 86.3065 250.852ZM94.5133 241.761C95.0512 242.988 95.5047 244.174 95.8648 245.302C94.6978 245.568 93.4378 245.783 92.1103 245.942C92.5281 245.28 92.9406 244.597 93.3459 243.894C93.7559 243.183 94.1452 242.471 94.5133 241.761ZM91.8565 243.035C91.2273 244.126 90.5814 245.167 89.9256 246.15C88.7313 246.236 87.4974 246.28 86.2398 246.28C84.9872 246.28 83.7689 246.241 82.5956 246.165C81.9135 245.169 81.2535 244.124 80.6283 243.044H80.6285C80.005 241.967 79.4311 240.881 78.9111 239.802C79.431 238.719 80.0033 237.632 80.6233 236.557L80.6231 236.557C81.2447 235.479 81.8989 234.44 82.5747 233.45C83.7717 233.36 84.9992 233.312 86.2397 233.312H86.2398C87.4858 233.312 88.7149 233.36 89.9115 233.451C90.5771 234.434 91.2268 235.47 91.8508 236.548C92.4819 237.638 93.0617 238.718 93.5859 239.777C93.0632 240.855 92.4848 241.945 91.8565 243.035ZM95.4034 223.834C96.7513 224.612 97.2754 227.746 96.4286 231.857C96.3746 232.119 96.3137 232.386 96.2477 232.657C94.5778 232.272 92.7645 231.985 90.8661 231.807C89.7601 230.232 88.6141 228.8 87.4637 227.561C87.773 227.263 88.0818 226.979 88.3894 226.712C91.3609 224.126 94.1381 223.105 95.4034 223.834ZM86.2398 236.166C88.2247 236.166 89.8339 237.775 89.8339 239.76C89.8339 241.745 88.2247 243.354 86.2398 243.354C84.2548 243.354 82.6457 241.745 82.6457 239.76C82.6457 237.775 84.2548 236.166 86.2398 236.166Z" fill="#7B4AE2" fill-opacity="0.5"/>
<g filter="url(#filter2_d_795_1355)">
<circle cx="85.8102" cy="468.98" r="35.8102" fill="#090E16"/>
</g>
<g clip-path="url(#clip1_795_1355)">
<path fill-rule="evenodd" clip-rule="evenodd" d="M79.8883 451.074C76.5938 451.074 73.9199 453.748 73.9199 457.043C73.9199 460.337 76.5938 463.011 79.8883 463.011C76.5938 463.011 73.9199 465.685 73.9199 468.98C73.9199 472.274 76.5938 474.948 79.8883 474.948C76.5938 474.948 73.9199 477.622 73.9199 480.916C73.9199 484.211 76.5938 486.885 79.8883 486.885C83.1828 486.885 85.8567 484.211 85.8567 480.916L85.8567 468.98C85.8567 472.274 88.5305 474.948 91.825 474.948C95.1196 474.948 97.7934 472.274 97.7934 468.98C97.7934 465.685 95.1196 463.011 91.825 463.011C95.1196 463.011 97.7934 460.337 97.7934 457.043C97.7934 453.748 95.1196 451.074 91.825 451.074H79.8883ZM91.825 463.011H85.8567L85.8567 468.98C85.8567 465.685 88.5305 463.011 91.825 463.011Z" fill="#7B4AE2" fill-opacity="0.5"/>
</g>
<g filter="url(#filter3_f_795_1355)">
<circle cx="309.624" cy="305.148" r="255.148" fill="#7B4AE2" fill-opacity="0.2"/>
</g>
<defs>
<filter id="filter0_d_795_1355" x="484.334" y="249.3" width="171.621" height="171.62" filterUnits="userSpaceOnUse" color-interpolation-filters="sRGB">
<feFlood flood-opacity="0" result="BackgroundImageFix"/>
<feColorMatrix in="SourceAlpha" type="matrix" values="0 0 0 0 0 0 0 0 0 0 0 0 0 0 0 0 0 0 127 0" result="hardAlpha"/>
<feOffset dy="4"/>
<feGaussianBlur stdDeviation="25"/>
<feComposite in2="hardAlpha" operator="out"/>
<feColorMatrix type="matrix" values="0 0 0 0 0 0 0 0 0 0 0 0 0 0 0 0 0 0 0.5 0"/>
<feBlend mode="normal" in2="BackgroundImageFix" result="effect1_dropShadow_795_1355"/>
<feBlend mode="normal" in="SourceGraphic" in2="effect1_dropShadow_795_1355" result="shape"/>
</filter>
<filter id="filter1_d_795_1355" x="0" y="157.984" width="171.621" height="171.62" filterUnits="userSpaceOnUse" color-interpolation-filters="sRGB">
<feFlood flood-opacity="0" result="BackgroundImageFix"/>
<feColorMatrix in="SourceAlpha" type="matrix" values="0 0 0 0 0 0 0 0 0 0 0 0 0 0 0 0 0 0 127 0" result="hardAlpha"/>
<feOffset dy="4"/>
<feGaussianBlur stdDeviation="25"/>
<feComposite in2="hardAlpha" operator="out"/>
<feColorMatrix type="matrix" values="0 0 0 0 0 0 0 0 0 0 0 0 0 0 0 0 0 0 0.5 0"/>
<feBlend mode="normal" in2="BackgroundImageFix" result="effect1_dropShadow_795_1355"/>
<feBlend mode="normal" in="SourceGraphic" in2="effect1_dropShadow_795_1355" result="shape"/>
</filter>
<filter id="filter2_d_795_1355" x="0" y="387.169" width="171.621" height="171.62" filterUnits="userSpaceOnUse" color-interpolation-filters="sRGB">
<feFlood flood-opacity="0" result="BackgroundImageFix"/>
<feColorMatrix in="SourceAlpha" type="matrix" values="0 0 0 0 0 0 0 0 0 0 0 0 0 0 0 0 0 0 127 0" result="hardAlpha"/>
<feOffset dy="4"/>
<feGaussianBlur stdDeviation="25"/>
<feComposite in2="hardAlpha" operator="out"/>
<feColorMatrix type="matrix" values="0 0 0 0 0 0 0 0 0 0 0 0 0 0 0 0 0 0 0.5 0"/>
<feBlend mode="normal" in2="BackgroundImageFix" result="effect1_dropShadow_795_1355"/>
<feBlend mode="normal" in="SourceGraphic" in2="effect1_dropShadow_795_1355" result="shape"/>
</filter>
<filter id="filter3_f_795_1355" x="4.47656" y="0" width="610.295" height="610.296" filterUnits="userSpaceOnUse" color-interpolation-filters="sRGB">
<feFlood flood-opacity="0" result="BackgroundImageFix"/>
<feBlend mode="normal" in="SourceGraphic" in2="BackgroundImageFix" result="shape"/>
<feGaussianBlur stdDeviation="25" result="effect1_foregroundBlur_795_1355"/>
</filter>
<clipPath id="clip0_795_1355">
<rect width="35.8102" height="35.8102" fill="white" transform="translate(552.238 313.205)"/>
</clipPath>
<clipPath id="clip1_795_1355">
<rect width="35.8102" height="35.8102" fill="white" transform="translate(67.9043 451.074)"/>
</clipPath>
</defs>
</svg>
